<svg xmlns="http://www.w3.org/2000/svg" viewBox="0 0 32 32">
  <defs>
    <style>
      .cls-1, .cls-2 {
        fill: #999;
      }

      .cls-2 {
        fill-rule: evenodd;
      }
    </style>
  </defs>
  <title>SW-application</title>
  <g id="Layer_2" data-name="Layer 2">
    <path class="cls-1" d="M16,30A14,14,0,1,1,30,16,14,14,0,0,1,16,30ZM16,3.06A12.94,12.94,0,1,0,28.94,16,12.94,12.94,0,0,0,16,3.06Z"/>
    <g id="Apps">
      <path class="cls-1" d="M11.71,9.14H10a.85.85,0,0,0-.85.85v1.72a.86.86,0,0,0,.85.86h1.72a.87.87,0,0,0,.86-.86V10A.86.86,0,0,0,11.71,9.14Zm0,2.57H10V10h1.72Z"/>
      <path class="cls-1" d="M16.86,9.14H15.14a.86.86,0,0,0-.86.85v1.72a.87.87,0,0,0,.86.86h1.72a.87.87,0,0,0,.86-.86V10A.86.86,0,0,0,16.86,9.14Zm0,2.57H15.14V10h1.72Z"/>
      <path class="cls-1" d="M22,9.14H20.29a.86.86,0,0,0-.86.85v1.72a.87.87,0,0,0,.86.86H22a.86.86,0,0,0,.85-.86V10A.85.85,0,0,0,22,9.14Zm0,2.57H20.29V10H22Z"/>
      <path class="cls-2" d="M11.71,14.28H10a.86.86,0,0,0-.85.86v1.72a.86.86,0,0,0,.85.86h1.72a.87.87,0,0,0,.86-.86V15.14A.87.87,0,0,0,11.71,14.28Zm0,2.58H10V15.14h1.72Z"/>
      <path class="cls-2" d="M16.86,14.28H15.14a.87.87,0,0,0-.86.86v1.72a.87.87,0,0,0,.86.86h1.72a.87.87,0,0,0,.86-.86V15.14A.87.87,0,0,0,16.86,14.28Zm0,2.58H15.14V15.14h1.72Z"/>
      <path class="cls-2" d="M22,14.28H20.29a.87.87,0,0,0-.86.86v1.72a.87.87,0,0,0,.86.86H22a.86.86,0,0,0,.85-.86V15.14A.86.86,0,0,0,22,14.28Zm0,2.58H20.29V15.14H22Z"/>
      <path class="cls-2" d="M11.71,19.43H10a.86.86,0,0,0-.85.86V22a.85.85,0,0,0,.85.85h1.72a.86.86,0,0,0,.86-.85V20.29A.87.87,0,0,0,11.71,19.43Zm0,2.58H10V20.29h1.72Z"/>
      <path class="cls-2" d="M16.86,19.43H15.14a.87.87,0,0,0-.86.86V22a.86.86,0,0,0,.86.85h1.72a.86.86,0,0,0,.86-.85V20.29A.87.87,0,0,0,16.86,19.43Zm0,2.58H15.14V20.29h1.72Z"/>
      <path class="cls-2" d="M22,19.43H20.29a.87.87,0,0,0-.86.86V22a.86.86,0,0,0,.86.85H22a.85.85,0,0,0,.85-.85V20.29A.86.86,0,0,0,22,19.43ZM22,22H20.29V20.29H22Z"/>
    </g>
  </g>
</svg>
