<svg xmlns="http://www.w3.org/2000/svg" xmlns:xlink="http://www.w3.org/1999/xlink" viewBox="0 0 32 32"><defs><style>.cls-1,.cls-3{fill:none;}.cls-2{clip-path:url(#clip-path);}.cls-3{stroke:#989899;stroke-miterlimit:10;}.cls-4{fill:#989899;}</style><clipPath id="clip-path"><ellipse class="cls-1" cx="16" cy="16.01" rx="14" ry="13.9"/></clipPath></defs><g id="Layer_2" data-name="Layer 2"><g class="cls-2"><path class="cls-3" d="M24.15,23.48a.82.82,0,0,1-.82.82H-20.88a.83.83,0,0,1-.83-.82V9.07a.83.83,0,0,1,.83-.82H23.33a.82.82,0,0,1,.82.82Z"/></g><rect class="cls-4" x="7.75" y="10.4" width="1.52" height="1.51" rx="0.45"/><rect class="cls-4" x="9.87" y="10.4" width="1.52" height="1.51" rx="0.45"/><rect class="cls-4" x="11.99" y="10.4" width="1.52" height="1.51" rx="0.45"/><rect class="cls-4" x="9.87" y="18.99" width="1.52" height="1.51" rx="0.45"/><rect class="cls-4" x="9.87" y="21.03" width="1.52" height="1.51" rx="0.45"/><rect class="cls-4" x="7.75" y="21.03" width="1.52" height="1.51" rx="0.45"/><rect class="cls-4" x="11.99" y="21.03" width="1.52" height="1.51" rx="0.45"/><rect class="cls-4" x="18.49" y="21.03" width="1.52" height="1.51" rx="0.45"/><rect class="cls-4" x="7.75" y="12.85" width="1.52" height="1.51" rx="0.45"/><rect class="cls-4" x="9.87" y="12.85" width="1.52" height="1.51" rx="0.45"/><rect class="cls-4" x="11.99" y="12.85" width="1.52" height="1.51" rx="0.45"/><rect class="cls-4" x="7.75" y="14.9" width="1.52" height="1.51" rx="0.45"/><rect class="cls-4" x="9.87" y="14.9" width="1.52" height="1.51" rx="0.45"/><rect class="cls-4" x="11.99" y="14.9" width="1.52" height="1.51" rx="0.45"/><rect class="cls-4" x="14.24" y="12.85" width="1.52" height="1.51" rx="0.45"/><rect class="cls-4" x="16.37" y="12.85" width="1.52" height="1.51" rx="0.45"/><rect class="cls-4" x="18.49" y="12.85" width="1.52" height="1.51" rx="0.45"/><rect class="cls-4" x="20.6" y="12.85" width="1.52" height="1.51" rx="0.45"/><rect class="cls-4" x="20.6" y="15" width="1.52" height="3.35" rx="0.45"/><rect class="cls-4" x="20.6" y="19.09" width="1.52" height="3.35" rx="0.45"/><rect class="cls-4" x="14.24" y="14.9" width="1.52" height="1.51" rx="0.45"/><rect class="cls-4" x="16.37" y="14.9" width="1.52" height="1.51" rx="0.45"/><rect class="cls-4" x="18.49" y="14.9" width="1.52" height="1.51" rx="0.45"/><rect class="cls-4" x="14.24" y="16.94" width="1.52" height="1.51" rx="0.45"/><rect class="cls-4" x="16.37" y="16.94" width="1.52" height="1.51" rx="0.45"/><rect class="cls-4" x="18.49" y="16.94" width="1.52" height="1.51" rx="0.45"/><rect class="cls-4" x="14.24" y="18.99" width="1.52" height="1.51" rx="0.45"/><rect class="cls-4" x="16.37" y="18.99" width="1.52" height="1.51" rx="0.45"/><rect class="cls-4" x="18.49" y="18.99" width="1.52" height="1.51" rx="0.45"/><rect class="cls-4" x="2.28" y="14.9" width="1.52" height="1.51" rx="0.45"/><rect class="cls-4" x="4.45" y="14.9" width="2.4" height="1.51" rx="0.45"/><rect class="cls-4" x="4.45" y="21.03" width="2.4" height="1.51" rx="0.45"/><rect class="cls-4" x="3.26" y="10.4" width="1.52" height="1.51" rx="0.45"/><rect class="cls-4" x="5.38" y="10.4" width="1.52" height="1.51" rx="0.45"/><rect class="cls-4" x="3.36" y="12.85" width="3.43" height="1.51" rx="0.45"/><rect class="cls-4" x="2.92" y="16.94" width="3.85" height="1.51" rx="0.45"/><rect class="cls-4" x="2.68" y="18.99" width="4.07" height="1.51" rx="0.45"/><rect class="cls-4" x="14.35" y="21.03" width="3.43" height="1.51" rx="0.45"/><ellipse class="cls-3" cx="16" cy="16.01" rx="13.51" ry="13.41"/></g></svg>